<svg xmlns="http://www.w3.org/2000/svg" viewBox="0 0 702.34 113.06"><defs><style>.cls-1{fill:#0f1a29;}.cls-2{fill:#77c157;}</style></defs><g id="Layer_2" data-name="Layer 2"><g id="Layer_1-2" data-name="Layer 1"><path class="cls-1" d="M78,88.81q-3-11.44-5.38-26.72a320.09,320.09,0,0,1-3.32-33.48H86.93c.08,3,.19,6.24.35,9.79s.34,7.11.57,10.7.5,7.08.8,10.47.65,6.47,1,9.21c1.68-2.28,3.57-5.11,5.67-8.46s4.13-6.87,6.12-10.54,3.81-7.34,5.49-11a82.35,82.35,0,0,0,3.9-10.13h18.08a150.61,150.61,0,0,1-7.38,16.71q-4.41,8.58-9.45,16.6t-10.24,15q-5.2,7-9.67,11.9Z"/><path class="cls-1" d="M123.58,65.24A40.09,40.09,0,0,1,126.15,51a38.9,38.9,0,0,1,7.27-12.18,36,36,0,0,1,11.39-8.59A33.42,33.42,0,0,1,159.63,27a23.49,23.49,0,0,1,7.44,1.14,18.15,18.15,0,0,1,6,3.32,15,15,0,0,1,4,5.32A17.24,17.24,0,0,1,178.51,44a19.7,19.7,0,0,1-2.86,10.87,21.61,21.61,0,0,1-8,7.27,39.54,39.54,0,0,1-12.08,4.06,85.82,85.82,0,0,1-15.22,1.26c.53,3.21,1.7,5.48,3.49,6.81s4.64,2,8.53,2a45.2,45.2,0,0,0,7.44-.63A36.49,36.49,0,0,0,167,73.71l1.26,13.39A50.65,50.65,0,0,1,160,89.38a53.22,53.22,0,0,1-10.82,1,31.61,31.61,0,0,1-12-2A20.31,20.31,0,0,1,125,75,33.49,33.49,0,0,1,123.58,65.24Zm33.3-24.72a14.42,14.42,0,0,0-10.24,4.17,20.19,20.19,0,0,0-5.78,11.05,64.29,64.29,0,0,0,11.44-1.2,25.07,25.07,0,0,0,6.75-2.35,7.63,7.63,0,0,0,3.21-3,7.14,7.14,0,0,0,.8-3.2Q163.06,40.52,156.88,40.52Z"/><path class="cls-1" d="M189.29,31.36q1.94-.57,4.29-1.32c1.56-.49,3.32-.95,5.26-1.37s4.12-.76,6.53-1a74,74,0,0,1,8.18-.4q13.5,0,18.54,7.78t1.72,21.29L226,88.81H209L216.53,57c.45-2,.82-3.91,1.08-5.78a14.08,14.08,0,0,0-.05-4.92,5.87,5.87,0,0,0-2.12-3.44,8.2,8.2,0,0,0-5.09-1.31,35,35,0,0,0-6.76.68l-11.1,46.58H175.44Z"/><path class="cls-1" d="M251.33,13.62l17.74-2.75-4.34,17.74h19l-3.43,14H261.41l-5,21.05a28.26,28.26,0,0,0-.86,4.93,8.17,8.17,0,0,0,.57,3.94,5.3,5.3,0,0,0,2.58,2.58,11.44,11.44,0,0,0,5,.91,27.35,27.35,0,0,0,5.32-.51,38.86,38.86,0,0,0,5.2-1.43l1.26,13A61.2,61.2,0,0,1,268,89.27a43,43,0,0,1-9.49.92q-7.91,0-12.25-2.35a13.53,13.53,0,0,1-6.18-6.41,20.22,20.22,0,0,1-1.6-9.33,59.41,59.41,0,0,1,1.6-11.1Z"/><path class="cls-1" d="M297.21,62.84q-.58,2.56-1.17,5a20.08,20.08,0,0,0-.58,4.67,9.54,9.54,0,0,0,1.93,6.3c1.28,1.56,3.68,2.54,7.18,2.92l-2.45,8.88A23.2,23.2,0,0,1,294,89.17a14.46,14.46,0,0,1-5.37-3.56,13.39,13.39,0,0,1-3-5.25,22.4,22.4,0,0,1-.94-6.67,35.65,35.65,0,0,1,.47-5.6c.31-1.94.74-4,1.29-6.07L300.53,1.87,311.86,0Z"/><polygon class="cls-1" points="320.5 90.63 309.64 90.63 324.24 29.9 335.1 29.9 320.5 90.63"/><path class="cls-1" d="M333.12,18.92a6.47,6.47,0,0,1-4.5-1.63,5.83,5.83,0,0,1-1.81-4.56,7.64,7.64,0,0,1,2.34-5.9,7.51,7.51,0,0,1,5.25-2.16A6.56,6.56,0,0,1,339,6.37a6.07,6.07,0,0,1,1.86,4.73,7.17,7.17,0,0,1-2.45,5.66A7.8,7.8,0,0,1,333.12,18.92Z"/><path class="cls-1" d="M414,29.9c-.55,2.33-1.44,5.43-2.69,9.28s-2.78,8.08-4.61,12.67-4,9.4-6.37,14.43a141.69,141.69,0,0,1-8.06,14.54q-1.64-6.19-2.86-13c-.81-4.52-1.52-9-2.1-13.49s-1-8.8-1.34-13-.51-8-.59-11.5H356.26l1.29-5.26a44.41,44.41,0,0,1,1.92-6.3,14.85,14.85,0,0,1,3-4.79,13,13,0,0,1,4.56-3.1,17.13,17.13,0,0,1,6.54-1.11,24,24,0,0,1,6.71.71,23.44,23.44,0,0,1,3.22,1.16l4.32-8.64A25.37,25.37,0,0,0,382.25.82,35.4,35.4,0,0,0,374.48,0a32.23,32.23,0,0,0-10.86,1.64,22.63,22.63,0,0,0-7.88,4.73A24.73,24.73,0,0,0,350.25,14a52.86,52.86,0,0,0-3.56,10.39l-13,54.19q-1.64,6.78-2.62,11a51,51,0,0,1-2.34,7.53,41.73,41.73,0,0,1-3.33,6.42q-2,3.16-5.49,7.71l9.58,1.4a46.56,46.56,0,0,0,6.48-7.88,39.41,39.41,0,0,0,3.85-7.89,73,73,0,0,0,2.51-8.76c.71-3.11,1.52-6.65,2.46-10.62L354.16,39h20.67q.85,11.45,2.82,22.66a249,249,0,0,0,7.06,29.78,41.34,41.34,0,0,1-8.93,8.64,19.76,19.76,0,0,1-11.51,3.27,14.58,14.58,0,0,1-4.43-.64,10,10,0,0,1-3.16-1.58L352.94,110a14.18,14.18,0,0,0,4.09,1.75,21.85,21.85,0,0,0,6.08.82,31.12,31.12,0,0,0,11.56-2,34.49,34.49,0,0,0,9.4-5.6,53.63,53.63,0,0,0,8-8.41q3.74-4.86,7.48-10.34a162.08,162.08,0,0,0,9.05-15.36q4.14-8,7.47-15.65c2.22-5.09,4.11-9.85,5.67-14.24s2.76-8.08,3.62-11Z"/><path class="cls-1" d="M442,20.71a9.81,9.81,0,1,1,9.81-9.81A9.81,9.81,0,0,1,442,20.71ZM442,2.9a7.86,7.86,0,0,0-7.86,8,7.85,7.85,0,1,0,15.7,0A7.84,7.84,0,0,0,442,2.9Zm2.06,13.28L441.9,12h-1.36v4.2h-2V5.59h4A3.28,3.28,0,0,1,446,8.84a3,3,0,0,1-2.09,2.87l2.36,4.47Zm-1.73-8.94h-1.79v3.2h1.79a1.6,1.6,0,1,0,0-3.2Z"/><path class="cls-2" d="M25.88,66.86h0c.68,0,1.34,0,2,0a82.89,82.89,0,0,0,13.2-1.22,39,39,0,0,0,12-4A21.4,21.4,0,0,0,61,54.32a19.69,19.69,0,0,0,2.85-10.84,17,17,0,0,0-1.42-7.12,15,15,0,0,0-4-5.31,18,18,0,0,0-6-3.31,23.3,23.3,0,0,0-7.41-1.14,33.23,33.23,0,0,0-14.77,3.25,35.79,35.79,0,0,0-11.35,8.56,38.7,38.7,0,0,0-7.25,12.15c-.37,1-.7,2-1,3A40.87,40.87,0,0,1,0,49.49S4.65,66.86,25.88,66.86ZM32.1,44.22a14.38,14.38,0,0,1,10.21-4.16q6.16,0,6.16,5.48a7,7,0,0,1-.8,3.19,7.53,7.53,0,0,1-3.19,3A24.38,24.38,0,0,1,37.75,54a63,63,0,0,1-11.41,1.2A20.24,20.24,0,0,1,32.1,44.22Z"/><path class="cls-2" d="M37.41,77c-5.95-.64-9-4-10.51-7h0c-7.75.91-13.52-.84-17.71-3.42a33,33,0,0,0,1.31,7.87A20.26,20.26,0,0,0,22.75,87.8a31.36,31.36,0,0,0,11.92,2c5.54,0,26.56-3.66,30.41-27.11C57.3,75.23,46.43,77.94,37.41,77Z"/><path class="cls-2" d="M462.06,89.48a28.11,28.11,0,0,1-10-5.41l2.6-4.52a29.44,29.44,0,0,0,9.3,5.08,35.05,35.05,0,0,0,11.9,2q8.91,0,13.15-2.93a9.35,9.35,0,0,0,4.23-8.12,7.63,7.63,0,0,0-2.32-5.87,14.29,14.29,0,0,0-5.69-3.16c-2.26-.67-5.38-1.39-9.37-2.14a78.35,78.35,0,0,1-11.28-2.71A17.59,17.59,0,0,1,457.21,57q-3-3.27-3-9A14.1,14.1,0,0,1,460,36.41q5.82-4.57,16.53-4.57a40.24,40.24,0,0,1,11.17,1.58,27.89,27.89,0,0,1,9,4.17L494.1,42.1a26.87,26.87,0,0,0-8.24-3.94,33.26,33.26,0,0,0-9.47-1.36q-8.24,0-12.41,3.05a9.46,9.46,0,0,0-4.17,8A8,8,0,0,0,462.17,54,15,15,0,0,0,468,57.28c2.3.71,5.51,1.48,9.65,2.31a83.06,83.06,0,0,1,11.11,2.65,16.81,16.81,0,0,1,7.16,4.57c2,2.1,2.94,5,2.94,8.68a13.79,13.79,0,0,1-6.09,11.74q-6.09,4.39-17.15,4.4A42.52,42.52,0,0,1,462.06,89.48Z"/><path class="cls-2" d="M555.24,38.27q6.43,6.42,6.43,18.5v34.4H556V57.22q0-9.93-5-15.12t-14-5.19q-10.4,0-16.36,6.21t-6,16.69V91.17H509V7.47h5.64V44.58a21.63,21.63,0,0,1,9-9.41,28.56,28.56,0,0,1,14.11-3.33Q548.8,31.84,555.24,38.27Z"/><path class="cls-2" d="M698.56,46.28a27.55,27.55,0,0,0-10.43-10.61,29.39,29.39,0,0,0-14.9-3.83A27.46,27.46,0,0,0,659,35.62a25.68,25.68,0,0,0-9.87,10.54V32.29h-5.41l0,26.67c.1,2.16.12,38.68.18,40.84a43.82,43.82,0,0,0,.23,6.18,58.33,58.33,0,0,0,1.9,6.61c.07.22.17.46.48.47s.45-.23.53-.5c.22-.74.47-1.48.65-2.23.39-1.68,1.2-3.27,1.26-5,.14-4,.23-23.56.38-27.55A25.38,25.38,0,0,0,659.13,88a27.64,27.64,0,0,0,14.1,3.67,29.66,29.66,0,0,0,14.9-3.78,27,27,0,0,0,10.43-10.61,31.47,31.47,0,0,0,3.78-15.51A31.13,31.13,0,0,0,698.56,46.28Zm-5,28.31a22.54,22.54,0,0,1-8.52,8.8,23.68,23.68,0,0,1-12.18,3.16,23.37,23.37,0,0,1-12.13-3.16,22.67,22.67,0,0,1-8.46-8.8,26.2,26.2,0,0,1-3.1-12.86,26.23,26.23,0,0,1,3.1-12.86,22.74,22.74,0,0,1,8.46-8.8,23.47,23.47,0,0,1,12.13-3.16,23.78,23.78,0,0,1,12.18,3.16,22.61,22.61,0,0,1,8.52,8.8,26.34,26.34,0,0,1,3.1,12.86A26.31,26.31,0,0,1,693.6,74.59Z"/><path class="cls-2" d="M603.29,33.25a29.93,29.93,0,1,0,30,29.13A29.94,29.94,0,0,0,603.29,33.25Zm23.16,38.5a6.69,6.69,0,0,0-2.82-1.63,3.26,3.26,0,0,0-2.79.79,1.45,1.45,0,0,0-.65,1.52c.25.66.88.37,1.4.34a2.94,2.94,0,0,1,2.78,1.49c.68,1,0,1.81-.51,2.58s-1.13,1.53-1.71,2.29c-.72,1-1.31,1.77-2.61.46-.86-.87-2.12-.52-3,.26a2.31,2.31,0,0,0-.65,3.14c.74,1.1.21,1.37-.61,1.79-1.12.59-2.18,1.23-3.56.77a2.61,2.61,0,0,1-2-1.64,3.9,3.9,0,0,0-6.07-1.63c-1.22.93-2.38,1.51-3.7.44s-1.13-2.31-.36-3.69a4.06,4.06,0,0,0-5.76-5.19c-1.21.76-2.3.94-3.25-.15s-.61-2.29.37-3.37a3.92,3.92,0,0,0,.39-4.6,4.06,4.06,0,0,0-4.32-2,2.39,2.39,0,0,1-3.05-1.26c-.66-1.32-.11-2.28,1-3.15a4,4,0,0,0,.07-6.44,4.57,4.57,0,0,1-.52-5.47c.3-.38.65-.71.95-1.08.43-.53.75-.72,1.35-.07a2.43,2.43,0,0,0,3.44.25,2.53,2.53,0,0,0,.68-3.53c-.42-.73-.28-1,.4-1.28.92-.4,1.82-.85,2.71-1.3a2.26,2.26,0,0,1,2.8.25,2.83,2.83,0,0,1,1,3c-.14.5-.5,1.11,0,1.45s1.24,0,1.74-.42a3.62,3.62,0,0,0,.79-4.34,17,17,0,0,0-.89-1.46c2-.28,3.85-.64,5.7-.11a2.92,2.92,0,0,1,2.17,3.77c-.11.46-.43,1,.09,1.29a1.35,1.35,0,0,0,1.48-.25,3.74,3.74,0,0,0,1.39-4c9.46,2.27,17.4,12.09,17.5,21.49-1.76-.5-3.45-.64-4.65,1.14-.27.41-.54.84-.27,1.31s.77.26,1.25.16a2.84,2.84,0,0,1,3.61,3.52A24,24,0,0,1,626.45,71.75Z"/><path class="cls-2" d="M596.83,62.73c-.37.36-.79.79-.54,1.38s.78.34,1.24.34a3.73,3.73,0,0,1,3.73,4.2c-.16.45-.24.91.32,1.2s.81-.12,1.12-.35c1.82-1.34,1.95-4.13.31-6.07S598.43,61.1,596.83,62.73Z"/><path class="cls-2" d="M607.87,54c0-.15,0-.36,0-.57a4.32,4.32,0,0,0-2.58-3.53,3.71,3.71,0,0,0-3.89.34,1.15,1.15,0,0,0-.61,1.19c.1.59.6.49,1,.57,2.5.52,3.31,1.73,2.94,4.4a.9.9,0,0,0,.29,1c.36.27.7.07,1-.1A3.39,3.39,0,0,0,607.87,54Z"/><path class="cls-2" d="M612.65,60.16a3.37,3.37,0,0,0-3,1.5c-.48.71-.53,1.29.61,1.36,3.15.2,3.7.71,4.21,3.88.14.89.57,1.1,1.3.55a3.15,3.15,0,0,0,1.31-2.75A4.7,4.7,0,0,0,612.65,60.16Z"/><path class="cls-2" d="M596.66,54.45c-.52-2.74-4-4.28-6-2.69-.33.26-.71.51-.64,1s.46.59.9.71c2.3.59,3,1.73,2.58,4-.08.46-.3,1,.23,1.29s.92,0,1.35-.23a3.39,3.39,0,0,0,1.69-3.26A7.8,7.8,0,0,0,596.66,54.45Z"/><path class="cls-2" d="M608.47,71.43a3.3,3.3,0,0,0-2.7,1.35c-.23.35-.54.66-.29,1.14s.62.39,1.08.35a3.26,3.26,0,0,1,3.74,3c.06.52-.35,1.29.54,1.41.7.09,1.13-.46,1.48-1a3.62,3.62,0,0,0,0-3.9A4.28,4.28,0,0,0,608.47,71.43Z"/><path class="cls-2" d="M615.21,49.17a3.27,3.27,0,0,0-2.07.65c-.42.32-.92.68-.78,1.27s.73.44,1.19.5a3.05,3.05,0,0,1,2.86,3.34c0,.48-.37,1.14.35,1.37s1.12-.22,1.5-.67a3.43,3.43,0,0,0,.61-3.84A4.06,4.06,0,0,0,615.21,49.17Z"/></g></g></svg>