<svg xmlns="http://www.w3.org/2000/svg" width="82" height="82" viewBox="0 0 82 82"><defs><clipPath id="aj6la"><path fill="#fff" d="M41 20c11.598 0 21 9.402 21 21s-9.402 21-21 21-21-9.402-21-21 9.402-21 21-21z"/></clipPath></defs><g><g><path fill="#fff" d="M41 20c11.598 0 21 9.402 21 21s-9.402 21-21 21-21-9.402-21-21 9.402-21 21-21z"/><path fill="none" stroke="#e1e1e1" stroke-miterlimit="20" stroke-width="2" d="M41 20c11.598 0 21 9.402 21 21s-9.402 21-21 21-21-9.402-21-21 9.402-21 21-21z" clip-path="url(&quot;#aj6la&quot;)"/></g><g><path d="M34.05 32.636l6.95 6.95 6.95-6.95 1.414 1.414-6.95 6.95 6.95 6.95-1.414 1.414-6.95-6.95-6.95 6.95-1.414-1.414 6.95-6.95-6.95-6.95z"/></g></g></svg>