<svg xmlns="http://www.w3.org/2000/svg" viewBox="0 0 652.37 463.12"><defs><style>.cls-1{fill:#c2e3ea;}.cls-2{fill:#a0c5c5;opacity:0.1;}.cls-3{fill:none;}.cls-3,.cls-5{stroke:#a2b8c0;stroke-linecap:round;stroke-linejoin:round;stroke-width:2px;}.cls-4{fill:#d2e6ed;}.cls-5{fill:#f1f7fa;}.cls-6{fill:#666;opacity:0.3;}.cls-7{fill:#76c057;}.cls-8{fill:#a2b8c0;opacity:0.6;}.cls-9{fill:#fff;}.cls-10{fill:#d7e6ec;}</style></defs><g id="Layer_2" data-name="Layer 2"><g id="OBJECTS"><ellipse class="cls-1" cx="345.11" cy="420.34" rx="116.9" ry="11.13"/><path class="cls-2" d="M196.16,85.45c77.75,10.57,135.22-85,224.51-74S511.52,101.4,517.61,126c24.66,99.5,96.95,114.2,90.14,212.44s-142,121.2-168.37,122.05-203.25,7.86-304.45-45.81S9.08,243.49,8.23,211.67,21,61.64,196.16,85.45Z"/><path class="cls-2" d="M308.41,21.67c61.45.85,100.85,18.2,125,33.17,39.82,24.66,39.8,43.85,97.8,94.39,59,51.41,80.59,50.35,91,77.39C642.35,279,589.82,348.77,555,382.24c-83.37,80.2-225.11,104.38-341,56.12C99,390.47,5.56,269.59,30.34,206.21c12.93-33.09,46.86-21.81,118.2-91,31.77-30.8,45.09-52.49,81.64-71.43C260.27,28.18,289,23.34,308.41,21.67Z"/><line class="cls-3" x1="163" y1="423.21" x2="476.38" y2="423.21"/><line class="cls-3" x1="230" y1="431.21" x2="409.1" y2="431.21"/><line class="cls-3" x1="114" y1="387.21" x2="522.11" y2="387.21"/><line class="cls-3" x1="68" y1="398.21" x2="77.64" y2="398.21"/><line class="cls-3" x1="76" y1="401.21" x2="81.04" y2="401.21"/><line class="cls-3" x1="149" y1="407.21" x2="154.74" y2="407.21"/><line class="cls-3" x1="136" y1="410.21" x2="151.87" y2="410.21"/><line class="cls-3" x1="131" y1="414.21" x2="138.68" y2="414.21"/><line class="cls-3" x1="488" y1="402.21" x2="494.9" y2="402.21"/><line class="cls-3" x1="494.9" y1="395.58" x2="508" y2="395.21"/><line class="cls-3" x1="505" y1="399.21" x2="513.61" y2="399.21"/><line class="cls-3" x1="538" y1="414.21" x2="546.87" y2="414.21"/><line class="cls-3" x1="546" y1="410.21" x2="550.65" y2="410.21"/><path class="cls-3" d="M58,156.21s30.87-42.58,85.94-42.58c93,0,130.54,73.58,193.06,85.58,123.74,23.75,115-52,195-48,35,0,67,30,67,30"/><path class="cls-3" d="M649,246.21s-26-27-90,13-107-4-130-13-54-29-136,1S145,310.43,78.52,272.82C29,242.21,16,251.21,16,251.21"/><path class="cls-4" d="M499.57,353.21l.16,9.3-2.82-.1.32-9.18a30.74,30.74,0,0,1-16.14-5c-1.28.24-2.66.44-4.14.57l.41,12.12c-1.6-.17-3.22-.35-4.87-.55l.19-11.59h-.41A35.46,35.46,0,0,1,461,347.36c-2.72,3.15-6.89,5.13-10.38,6.32a38.58,38.58,0,0,1-6.3,1.59l0,.76-3.07-.58q-4.22-.81-8.35-1.51c-9.26-2.93-11.52-9.66-11.25-16a18.93,18.93,0,0,1-3,.56l.23,13.27-4.06-.54.36-12.66a21.49,21.49,0,0,1-7.72-2.05,23.39,23.39,0,0,1-19.21,12.11v.06l-5.29-.3a27.17,27.17,0,0,1-14.87-7.34c-4.95,3.8-11.36,5.85-15.38,6.84q-6.72.12-12.81.44a43.56,43.56,0,0,1-4.84-1,8.85,8.85,0,0,1-1.14,1.3,366.62,366.62,0,0,0-37,4.23l-1.76.3a30.61,30.61,0,0,1-15.42-5c-1.29.24-2.66.44-4.15.57l.25,7.53c-1.49.23-3,.45-4.65.67l.14-8.22h-.42a35.48,35.48,0,0,1-11.31-1.43c-2.71,3.15-6.89,5.13-10.38,6.32a38.58,38.58,0,0,1-6.3,1.59l.12,5c-1.7.16-3.42.31-5.17.45l.22-5.47c-14.81-1.46-18.14-9.66-17.82-17.28a18.93,18.93,0,0,1-3,.56l.41,23.42c-1.5.06-3,.11-4.54.15l.66-23.5a21.49,21.49,0,0,1-7.72-2.05,23.37,23.37,0,0,1-19.2,12.11l.19,13.53-2.92-.09.39-13.41a27.06,27.06,0,0,1-17.83-7.61,40.06,40.06,0,0,1-12.55,6.07,51,51,0,0,1-6.69,1.56l.24,10.41q-3.57-.47-7.14-1l.38-9.43a45.47,45.47,0,0,1-7.26-1.26c-4.71,6.46-16.3,5.77-16.3,5.77H117v.47c-3.42-.64-6.79-1.21-10.09-1.7-16.25-5.15-7.42-22.42-5.58-25.9,2.06-3.88,8.47-15.68,4.71-27-6-16.55,3.76-23.32,9-24.08,4-.58,14.54,1.08,15,14.13,1.94-6.8,2.72-14.65,0-22.39-8.75-23.34,6.18-31.13,13.82-32.2,6.48-.92,25.17,2.14,21.37,27.6-3,20.12-1.61,29.64.72,36.41,4.76-10.42,11.69-22.39,20-35.57,2.69,3.51,5.09,7,7.23,10.42,4.95-15.81,12.86-34.44,22.62-55.19a190.43,190.43,0,0,1,20.72,53.51,14.56,14.56,0,0,1,3.69-1.06c4.8-.68,18.66,1.58,15.85,20.46A85,85,0,0,0,255,309.54c2.06-5.86,3.37-14,.79-31.88-3.17-21.91,12.43-24.53,17.84-23.75,6.37.93,18.24,9.14,10.94,29.23-2.07,6.19-1.6,12.5-.25,18,3.78-5.59,8.18-11.57,13.08-17.88a108.6,108.6,0,0,1,8.57,10.3c-2.25-12.58,5.89-17.92,10.51-18.59,4-.58,14.55,1.08,15,14.13,1.95-6.8,2.73-14.65,0-22.39-8.75-23.34,6.18-31.13,13.81-32.2,6.48-.92,25.18,2.14,21.38,27.6-3,20.12-1.62,29.64.71,36.41,4.77-10.42,11.7-22.39,20-35.57,2.69,3.51,5.08,7,7.22,10.42,4.95-15.81,12.87-34.44,22.63-55.19A190.74,190.74,0,0,1,438,271.69a14.45,14.45,0,0,1,3.69-1.06c4.8-.68,18.66,1.58,15.84,20.46a85.49,85.49,0,0,0-1.14,18.45c2.06-5.86,3.37-14,.78-31.88C454,255.75,469.62,253.13,475,253.91c6.38.93,18.25,9.14,10.94,29.23a32.28,32.28,0,0,0-.24,18c3.77-5.59,8.18-11.57,13.08-17.88,18.42,19.64,23.31,38.06,23.31,49.42C522.11,343.62,512.69,352.56,499.57,353.21Z"/><path class="cls-3" d="M1,357.21s49-18,124-2,155.7.37,171.85-2.32,72.61-11.2,144.38,2.56,103.06,4.74,124.77-2.24c52.87-17,85.37,1.88,85.37,1.88"/><path class="cls-5" d="M300.35,345.25c-18.05-.46-33.92-12.52-33.92-27.33,0-15.1,14.5-38,36-65.71,24.5,26.12,31,50.61,31,65.71,0,14.54-12.52,26.44-30,27.3Z"/><polygon class="cls-5" points="299.4 372.2 302.43 286.49 303.94 372.2 299.4 372.2"/><path class="cls-5" d="M273.38,339.37c40.2-3.7,22.91-37.56,19.6-43.82s-13.68-25.3-7.61-43.5c9.71-26.7-6.07-37.63-14.55-38.86-7.18-1.05-27.93,2.45-23.72,31.57s.64,38.84-3,47.34-10.92,21.85-4.85,35.2,27.91,12,27.91,12l6.22,0"/><path class="cls-5" d="M191.89,325.82c-18.87-.8-35.45-21.55-35.45-47,0-26,15.15-65.33,37.62-113.1,25.59,45,32.38,87.11,32.38,113.1,0,25-13.07,45.5-31.31,47Z"/><polygon class="cls-5" points="274.49 372.2 269.59 226.56 267.16 372.2 274.49 372.2"/><path class="cls-5" d="M152.29,339.19c-18.06-.57-33.92-15.34-33.92-33.48,0-18.51,14.5-46.5,36-80.5,24.5,32,31,62,31,80.5,0,17.81-12.52,32.38-30,33.43Z"/><polygon class="cls-5" points="151.34 372.2 154.37 267.2 155.87 372.2 151.34 372.2"/><line class="cls-5" x1="252.6" y1="288.46" x2="268.32" y2="302.64"/><polygon class="cls-5" points="189.89 372.2 194.06 224.69 196.63 372.2 189.89 372.2"/><path class="cls-5" d="M224,348c-35.71-3.19-22.22-35.37-19.28-40.77s14.09-23,8.16-40c-8.63-23,6.09-30.68,13.62-31.74,6.38-.9,24.81,2.1,21.06,27.2s-.56,33.46,2.67,40.78,9.7,18.82,4.31,30.33S230,348,230,348Z"/><polygon class="cls-5" points="222.52 372.42 227.61 246.94 230.51 372.42 222.52 372.42"/><line class="cls-5" x1="242.7" y1="300.26" x2="229.23" y2="316.83"/><path class="cls-5" d="M95,339.21c-48.17-4.31-30-47.73-26-55s19-31,11-54c-11.63-31,8.21-41.39,18.37-42.82,8.61-1.22,33.47,2.84,28.42,36.7s-.76,45.14,3.6,55,13.09,25.39,5.82,40.91S103,339.21,103,339.21Z"/><polygon class="cls-5" points="92.99 372.2 99.85 202.93 103.76 372.2 92.99 372.2"/><line class="cls-5" x1="120.21" y1="274.87" x2="102.03" y2="297.22"/><polygon class="cls-6" points="549.81 372.16 549.81 372.16 549.95 296.54 548.53 296.54 548.53 372.2 549.81 372.16"/><polygon class="cls-4" points="549.6 372.16 549.6 372.16 549.74 296.54 548.32 296.54 548.32 372.2 549.6 372.16"/><polygon class="cls-7" points="549.61 362.67 548.32 362.72 548.32 372.2 549.6 372.16 549.61 362.67"/><polygon class="cls-7" points="549.67 333.08 549.64 350.79 548.32 350.79 548.32 333.08 549.67 333.08"/><path class="cls-7" d="M548.32,296.54h1.42a6,6,0,0,1,3.8-.88c2.65.07,5.77,2.53,6.15,2.84s10.79,9.73,14.81,9.26a5.33,5.33,0,0,0,3-.88,13.67,13.67,0,0,1-14.36,5.84,13.63,13.63,0,0,0-13.41,6h-1.38Z"/><line class="cls-5" x1="114.39" y1="221.27" x2="100.67" y2="235.07"/><line class="cls-5" x1="97.21" y1="268.11" x2="88.87" y2="255.66"/><line class="cls-5" x1="95.53" y1="309.55" x2="76.5" y2="298.15"/><path class="cls-5" d="M57.88,345.16c-33.13-3.05-18.88-31-16.15-36.11S53,288.21,48,273.21c-8-22,5-31,12-32,5.93-.86,23,2,19.55,26s-.53,32,2.47,39,9,18,4,29-23,9.92-23,9.92l-5.12,0"/><polygon class="cls-5" points="56.97 372.2 61 252.21 63 372.2 56.97 372.2"/><line class="cls-5" x1="75" y1="303.21" x2="62.04" y2="314.89"/><line class="cls-3" x1="16" y1="372.21" x2="618.87" y2="372.21"/><line class="cls-5" x1="71" y1="265.21" x2="61.42" y2="277.28"/><line class="cls-5" x1="59.55" y1="295.25" x2="53.45" y2="289.59"/><line class="cls-5" x1="58.47" y1="327.56" x2="44.94" y2="319.71"/><line class="cls-5" x1="238.39" y1="260.53" x2="228.22" y2="270.76"/><line class="cls-5" x1="225.65" y1="295.25" x2="219.47" y2="286.03"/><line class="cls-5" x1="224.41" y1="325.97" x2="210.3" y2="317.52"/><line class="cls-5" x1="257.45" y1="242.34" x2="269.08" y2="257"/><line class="cls-5" x1="271.35" y1="278.81" x2="278.76" y2="271.93"/><line class="cls-5" x1="272.66" y1="318.02" x2="289.08" y2="308.49"/><path class="cls-7" d="M450.13,408.45a5.36,5.36,0,0,1,.81,3.15q0,4.36,0,8.74h3.59c0-2.93,0-5.85,0-8.78a8.52,8.52,0,0,1,.17-1.67,5.23,5.23,0,0,1,1.47-2.55,1.26,1.26,0,0,0,.37-.94v-.08c0,.88-1.7,1.6-3.8,1.6s-3.84-.7-3.84-1.58v.08a1.35,1.35,0,0,0,.37.95A9.85,9.85,0,0,1,450.13,408.45Z"/><circle class="cls-8" cx="452.73" cy="398.72" r="10.09"/><circle class="cls-9" cx="452.73" cy="398.72" r="9.28"/><path class="cls-4" d="M453.14,403.39a1,1,0,1,0,1,1A1,1,0,0,0,453.14,403.39Z"/><path class="cls-4" d="M456.41,401.44a1,1,0,1,0-1,1A1,1,0,0,0,456.41,401.44Z"/><path class="cls-4" d="M458.89,398.47a1,1,0,0,0-2,0,1,1,0,1,0,2,0Z"/><path class="cls-4" d="M458.31,400.67a1,1,0,1,0,1,1A1,1,0,0,0,458.31,400.67Z"/><path class="cls-4" d="M456.08,403.38a1,1,0,1,0,1,1A1,1,0,0,0,456.08,403.38Z"/><path class="cls-10" d="M24.34,84.31H141.7c5,0,2.6-3,.94-3.73s-4.91-1.7-10.77-1.27c-4.49-4.87-9.78-11.77-31.13-2.08-2.22-9.5-15.22-16.82-33-7.61-10.84,5.67-14.17,7.61-14.17,7.61S27.7,78.13,24.34,84.31Z"/><path class="cls-10" d="M235.62,18.93h98.86c4.22,0,2.19-3,.79-3.73s-4.13-1.7-9.07-1.28C322.42,9.05,318,2.16,300,11.84,298.1,2.35,287.16-5,272.15,4.24c-9.13,5.66-11.94,7.6-11.94,7.6S238.44,12.74,235.62,18.93Z"/><path class="cls-10" d="M486.67,92.25l29.06-5s9.92-7.51,18.71-7.94,10.91,7,18.56,6.45,14.6-14.1,32.74-14.24,23,6,26.23,11.76c1.7,3.83,4.53,4.4,7.51,4.82s7.23,4.11,2.41,4.11Z"/><path class="cls-9" d="M360.32,421.73c-15,0-18.52,0-25.14-1.13a80.68,80.68,0,0,0-13.29-1.12,46.32,46.32,0,0,0-11.84,1.31,13.64,13.64,0,0,1-3.47.53,4.66,4.66,0,0,1-3-.85,3,3,0,0,1-1.13-2.32,42.65,42.65,0,0,1,11.85-4.43l-.28-2a25.67,25.67,0,0,0-12.46,4.5c-2.35-7.77,2.57-15.06,4.67-18.18l1.6-1.56-2.24-.14c-4.48-.3-10.21-3.62-11.39-6a1.18,1.18,0,0,1-.06-1.25c.38-.61.73-1.16,1.05-1.7l1.86-3.08-3.18,1.68a6.69,6.69,0,0,1-3.27.76,15.48,15.48,0,0,1-9.55-4.05,3.48,3.48,0,0,1-1.23-2.89c.2-2.18,2.66-3.92,2.94-4.11l1.34.27-.14-1.35c-.13-1.2.57-2.65,1.32-4.19.27-.54.53-1.09.79-1.67a2.14,2.14,0,0,1,2.08-1.31l1.87-.07-1.1-1.51a6.31,6.31,0,0,1-1.4-2.79,1,1,0,0,1,.34-.71c.82-.77,3.44-1.23,7-1.23.47,0,.91,0,1.28,0l1.12,0-.09-1.12c-.33-4-1.16-17.37,2.06-23.82,5.78-9.24,4.4-19.65,3.57-25.87a22.44,22.44,0,0,1-.36-4.17c.05-.48.07-.91.08-1.28l0-.52-.43-.31c-7.33-5.34-12-18.85-12.16-19.43s-1.17-12-14.56-26.08c-19.08-21-19.1-23.47-19.16-30.11,0-1.19,0-2.52-.14-4.1a11.64,11.64,0,0,1,.39-4.11l.29-1-1-.22c-.09,0-.24-.13-.43-.51-1.29-2.45-3.38-8-2.09-11.52a4.77,4.77,0,0,1,2.8-2.88,5.18,5.18,0,0,1,1.95-.43,3.67,3.67,0,0,1,1.85.5,4.37,4.37,0,0,1,1.14.95l1.84,2.12-.09-2.8a10,10,0,0,1,.16-2.64l.25-.94-.94-.27c-.55-.24-.81-.53-.88-.94-.15-.84.67-2.09,1.55-3l.1-.1.07-.12c3.73-6.52,7.31-12.62,8.3-13.31l.6.09.28-.61.43-.78c1.39-2.51,5.62-10.16,8.18-14.46.64-1.08,1.12-1.63,1.45-1.63l1.65.47-.33-1.65a41.94,41.94,0,0,1-.92-4.58c-.17-1.42-.06-2.2.33-2.32l.13,0a.37.37,0,0,1,.16,0l1.53.58-.17-1.62c-.12-1.07-.2-2.28-.26-3.59a15.31,15.31,0,0,1,2.33-9.4l.17-.26v-.32c-.05-1.27,1-2.79,3.09-4.5A12,12,0,0,0,294.14,128l0-.3-.19-.24a12.24,12.24,0,0,0-1.41-1.47l-.38-.33-.5.11A176.46,176.46,0,0,1,266,129.41c-1.43.1-2.76.15-4,.15-11.71,0-13.59-4.55-14.87-14.19-1.37-10.38,2.9-17.09,6-22l.29-.48a105.52,105.52,0,0,1,8-10.08l.15.16.78-1.37.14,0,.25-.24,1.66-1.87,0-.44a.37.37,0,0,1,0-.19c0-.07.09-.24.6-.33l.33-.06,1-1.1,0-.44c0-.41-.07-1.13-.12-2.06s1-2.5,2.15-4.17a38.13,38.13,0,0,0,2.32-3.76,12.54,12.54,0,0,0,1-4.61c.13-1.29.24-2.4.74-2.81l.13-.09,1.72-1.06-1.89-.72c-.31-.25-3.32-2.77-3.38-8.14s5.39-8,10.49-8.08h.1c4.3,0,8.86,3.82,10.06,7.24l.22.63.68,0c21.14,1,30.5,3.22,42.37,6.56,11.65,3.28,12,10.72,12,11.55v.14c.07.5.59,5-1.88,8a8.06,8.06,0,0,1-6.21,2.75h-.81c-7.75,0-8.9-5-9.59-7.91-.11-.48-.21-.86-.3-1.17-.61-2,.32-2.86,1.92-4.13.26-.19.52-.41.78-.63A7.2,7.2,0,0,0,330.66,62l.41-.93-.94-.4-1.29-.54c-2.76-1.19-7.19-3.14-12.48-5.51-9.2-4.1-16.47-5-21-5a29.76,29.76,0,0,0-3.53.2l-1.41.18,3.36,6.65-.27.56-.44.87.87.46.16.12c1.11,1.11,10.55,8.56,15,10.89,1.6.83,2.38,1.66,2.39,2.53a2.52,2.52,0,0,1-.8,1.68l-1.9,2.11,2.8-.46a21.35,21.35,0,0,1,2.33-.18l1.77-.09h.1c3.13,0,10.68,5.91,16.77,11.77a1.41,1.41,0,0,0,0,.18v2.42l1.71-1.71.2-.17a2.51,2.51,0,0,1,1.53-.57,2.33,2.33,0,0,1,.68.1c1.86.56,4.06,3.64,5.87,8.24l.05.12.07.1a1.38,1.38,0,0,1,.25.79l-.58,1.23,1.36.19a22.1,22.1,0,0,0,3.77,4.3l2.74,2.63-1.09-3.64a2.67,2.67,0,0,1-.11-.75,1.89,1.89,0,0,1,.86-1.44,4.62,4.62,0,0,0,.37-.35c1-1.1,6.22-11.62,6.5-15.22a1.76,1.76,0,0,1,.92-1.41,3.41,3.41,0,0,1,.33-.17l.87-.36-.3-.88c-.18-.55.21-1.72,1.15-3.48,2.15-4,7.28-10.68,17.43-10.68a28,28,0,0,1,7,1c13.89,3.64,14.5,14.84,14.87,21.53,0,.47.05.87.08,1.24v.12l0,.1a1.67,1.67,0,0,1,.06.87l-.25.93.92.28c3.74,1.14,9.4,8.09,10,11.46.19,1.19-.16,2-1,2.3a5,5,0,0,1-1.81.32h0c-3.15,0-7.15-2.34-10.68-4.4l-.47-.27c-.82-.48-1.59-.92-2.31-1.31l-.95-.51-.59,1.35v.15a8,8,0,0,1-1.12,3.31l-.46.45.18.56c1.63,5.65,1.49,7.9.87,8.11a1,1,0,0,1-.2,0,3.72,3.72,0,0,1-1.23-.28l-2.21-.79,1,2.14a1.63,1.63,0,0,1,.14.46.78.78,0,0,1-.19.62c-.08.08-.3.32-1,.32a4.33,4.33,0,0,1-.95-.11l-2.52-.5,1.51,2.07a1.3,1.3,0,0,1,.28.61.44.44,0,0,1-.13.35,7.64,7.64,0,0,1-1.35.95l-.09.06c-1,.59-1.95,1.18-2.25,2.21a.62.62,0,0,1-.48.41,1.81,1.81,0,0,1-.52.06,6.48,6.48,0,0,1-1.71-.28l-3.4-1,2.4,2.59c6,6.45,9,12.09,8.63,16.3-.66,11.51-9.25,18.33-17.56,24.92-4.22,3.34-9,7.11-12.5,11.5-7.65,9.6-21.54,28.12-28.62,44.29l-.24.24,0,.31c-.17,1.27,1,5,10.56,15.23,8.41,9,13.15,14.35,12.85,19.84l-.07,1.47,1.39-.47a.62.62,0,0,1,.2,0h.12c.64.08,1,1.32,1.51,3.52.16.72.35,1.5.57,2.3s.64,2.16,1.16,3.81l.3,1c2.9,9.37,8.31,26.8,6.92,31.87-.05.19-.11.36-.17.53l1.69,1a5.46,5.46,0,0,1-.56.82l-34.79,52.07-.56,8c-.28,4.35-.55,9.38-.83,15.37l0,.7.65.27c4,1.64,6.62,3.6,7,5.26a2.25,2.25,0,0,1-.75,2.11,9.32,9.32,0,0,1-2.35,1.75l-.75.38.25.81v7.51l0,.12a7,7,0,0,0,2,3.14l.08.07.08.06c1.27.81,2.77,1.7,4.44,2.63l1,.55.91.47.07,0A46,46,0,0,0,352,405.86c9.53.87,16.17,4.4,16.52,8.77.23,3.08-2.83,5.74-8.2,7.11Z"/><path class="cls-3" d="M305.21,396.15c-5.67-.19-12.28-5.35-10.95-7.27,13.61-21.63,1.14-18.74,1.32-21.27s-8.89-5.29-1.84-4.53,6,3.4,4.22,15.68-13.21,7.23-16.8,3.73,1.7-7,1.7-7-.28.71-.7,1.94c1.32,3.78,9,3.9,12.1.94-14-1.13-10.21-4.91-8.08-9.82s15.63,5.67,12.61,5.36-11.15-8.58-11.15-11S297.4,361,297.4,361s-1.82-17.39,2-24.95c7.56-12.09,2.84-26.45,3.22-30.05s-.9-4.15,5.1,0c-10.58-.56-17.59-21.52-17.59-21.52s-.73-11.54-14.57-26.1C253,233.63,257,234.57,256.22,224.18s10.63-13.8,17.24-11,34.4-.91,51.5,5.61c-9.92.51-8-3-18.43-17.71S289,145.19,289,145.19s-5.1-1.7,1.12-6.81,3.66-13.23,3.66-13.23,15.82-14.17,18.09-17.38.63-4.4-7.19-14.93c-24.94,1.51-7.37,13.79-7.37,13.79s-7.74-11.71-11.71-11c-6.81,1.14-4,12.1-4,12.1s-.19-9.45-3.78-9.26-5.29,13.42-20.6,25.51c15.69-10.77,19.09-28.53,19.28-39.5-9.26-3.59-13.8,2.27-15.5,2.65s2.27-7.56,1.32-5.48,6.24.19,6.24.19-9.07-4.91,0-3.43,14-20.38,12.47-13.77-8.69,13.42-9.82,15.88S278.57,83,278.57,83s7.74-18.52,9.63-16.44c0,11.15,11.91,16.06,11.91,16.06s-.38-1.32,7.18,12.67a65.78,65.78,0,0,0,18.33,21.35l3.4,7.56c9.45,17.57,18.1,21.92,30.24,40.06-3.59-7.93-14.17-30.23-16.06-27.78S330.35,175,331.11,200.18s-7.57,20.52-7.57,20.52.91,20.29,1,13.49,7.28-13.22,3.12-8.67-2.62,29.25-5.39,19.26S288,211.52,301.67,220.7s28.49,43.16,33.59,59.93-.38,41.63-2.67,51.45-3.58,35.75-4.13,48.19S316,397.81,306.35,397.81c-2.27,3.36-7,10.53-4.68,18.18,16.3-11.15,33.4,1.32,33.4,1.32l5.28-9s.62,2.74-7.76,9c-11.16-10.36-30,.54-30,.54s-.19,4.72,7.55,2.64,18.52-1.32,25.14-.18,10.2,1.13,25.13,1.13c13.42-3.4,10.21-14.17-8.31-15.87s-19.49-9.26-19.49-9.26v-7.46s-2.06,4.43-2.62,6.13,5.86,5.48,9.26,7.37,6,2.44,1.12,4.92c-13.06-11.34-25.88-.95-33.44-5.48,14.36,6,21.36-7.37,21.36-7.37v-6.58s3.4,1.85,7.18-1.95-7.18-7.73-7.18-7.73l1.7-24,35.34-52.88s-2.65,6.08-26.65,18.3c8.69-2.83,23.43-13.61,25.13-19.84s-6.8-31-8.38-36.66-1.25-10.21-7.11,1.51c6.61-9.83,3.78-14-9.45-28.14s-10.3-15.78-10.3-15.78c6.38-14.54,18.57-31.67,28.63-44.29s29.05-18.85,30.05-36.42c.85-11.06-20.32-26.84-20.32-26.84l7.18,6.24c1.51,1.32,7.75,4.06,8.22,2.46s2.65-2.18,3.69-3.22-4.35-4.06-4.73-4.53,6.24,3.21,7.56,1.79-4.63-5.76-4.63-5.76,6,4.06,7.37,3.59-1.13-9-1.13-9l2.27-4.92c4.34,2.08,11.81,7.84,16.2,6.14s-5.67-13.74-9.64-13.89-13.18-2.69-13.18-2.69-1.84,7,5.67,9.64c1.33,2.08-1.41,8.22-1.6,5s-.1-6.92-6.76-10.68A42.85,42.85,0,0,1,373,85.28s-8.08,1-8.36,5.17,1.77,25.87,1.77,25.87,5.81,5.74,5.39,5.67-5.39-6.73-6.59-10.91,2.27-13.11,3-14.18,1.42-13-1.63-12-4.25,20.9,3,9.35S382.34,87.19,384,88s16.93,6.81,15.23,2c-.42-6.45-.07-19-14.95-22.89s-21.9,5-24.45,9.71-.21,3.75-.21,3.75,11.83,1.42,16.94,4.47c-9.22-4-19.42-5.6-19.7-1.92s-5.46,14.11-6.52,15.24-3.76,1.7,5.38,10.42,7.37,6.09,7.37,6.09S346.2,102,343.79,97.61c-4.4,12.76-6.38,16.8-5.74,20.69.28-14.31,2.26-23.38,3.61-23.38A1.27,1.27,0,0,1,343,96.19s-4.18-12-8.44-8.78-10.2,23.17-9.49,26.93-2-9.08,1.41-17.3,6.17-10.34,6.17-10.34-12.47-12-16.87-11.77-6.16-.28-6.94,3.48,3,16,3,16-7.8-14.17-9.57-11-3.05-2.69,3.26-6.24,8-5.6,3.68-7.86-13.89-9.78-15-10.92-5.74,5.74-5.6,7.16,5.32-9.14,5.32-9.14l-3.33-6.59s10-2.55,25.86,4.53,14.68,6.38,14.68,6.38A7.87,7.87,0,0,1,329,64.23c-1.55,1.35-3.47,2.27-2.69,4.75s1,9.5,10.7,9.07,8.08-10.84,8.08-10.84.36-8.15-12-11.62S311.26,49.92,290,49c-.78-3.4-5.53-7.94-10.35-7.87s-10.56,2.41-10.49,8.08,3.41,8.15,3.41,8.15a22,22,0,0,1,4-.5c.78.14-2.9-2.76-.42-2.62s5.24,2.84,5.24,2.84,2.2-.93,2.13-2.77,2.62-1.27,3-1.63a43.58,43.58,0,0,0,1.91-4.6,3.9,3.9,0,0,1-.28,4.53c-1.78,2.48-4.75,6.45-6.38,6.52a25,25,0,0,1-4.61-.57s8.5,5,8.5,6.67-8-5.46-12.4-6.17c-1.91-.21-.78,4.39-2.41,7.58s-4.53,6.38-4.46,7.94.14,2.48.14,2.48-9.71,10.56-12.9,15.59-7.72,11.76-6.3,22.47,3.68,15.09,18.85,14a170.88,170.88,0,0,0,26.08-3.76s5.59,4.39,3.18,8.93-11.43,7.05-10.89,18.55S287,162.1,287,162.1s-5-8.67-4.25-2.28,9.92,34.45,9.92,34.45l-10.06-23.1s1.42-9.21-1.7-4-8.65,15.31-8.65,15.31S273.42,193.14,276,194s-7-4.39-4.82-9.92-8.08,12.33-8.08,12.33-3.12,3-.85,4,35.35-5,48.61,13c-17.71.78-38.69-6.59-46.7-1.7s-7.72,8.5-8.71,6.59-5.46-11.84.7-14.39,7.45,7.16,7.45,7.16-1.49-9.78-.29-9.85,2.2,8.22,2.2,8.22"/><path class="cls-9" d="M555,306.77h.29a11.37,11.37,0,0,0,1.91-.18,5.81,5.81,0,0,0,1.75-.58,3.16,3.16,0,0,0,1.15-1.05,3,3,0,0,0,.41-1.58,2.43,2.43,0,0,0-.21-1,2.21,2.21,0,0,0-.58-.77,2.53,2.53,0,0,0-.87-.48,3.38,3.38,0,0,0-1.07-.17,4.74,4.74,0,0,0-2.14.48,5,5,0,0,0-1.65,1.24,5.68,5.68,0,0,0-1.05,1.76c-.06.15-.1.29-.15.44a5.9,5.9,0,0,1-1.55-.6,3.72,3.72,0,0,0,3.76,2.53Zm.9-3.29a2.1,2.1,0,0,1,1.48-.6c.6,0,.89.26.89.79a1,1,0,0,1-.11.46,1.07,1.07,0,0,1-.46.43,3.35,3.35,0,0,1-1,.34,8.44,8.44,0,0,1-1.65.18A2.94,2.94,0,0,1,555.86,303.48Z"/><path class="cls-9" d="M556.63,308.23a1.8,1.8,0,0,1-1.52-1h0a3.9,3.9,0,0,1-2.56-.49,5.22,5.22,0,0,0,.18,1.14,3.21,3.21,0,0,0,.64,1.16,3,3,0,0,0,1.14.78,4.63,4.63,0,0,0,1.73.29,4.57,4.57,0,0,0,4.41-3.93A4,4,0,0,1,556.63,308.23Z"/></g></g></svg>