<svg xmlns="http://www.w3.org/2000/svg" viewBox="0 0 448.71 407.8"><defs><style>.cls-1,.cls-2,.cls-3,.cls-4,.cls-5{fill:none;stroke:#000;stroke-width:2px;}.cls-1,.cls-2,.cls-3,.cls-4{stroke-miterlimit:10;}.cls-2{stroke-dasharray:12;}.cls-3{stroke-dasharray:11.08 11.08;}.cls-4,.cls-5{stroke-linecap:round;}.cls-5{stroke-linejoin:round;}.cls-6{fill:#75c257;}</style></defs><g id="Layer_2" data-name="Layer 2"><g id="OBJECTS"><path class="cls-1" d="M289.38,336.45l-146.9,21.8A25.75,25.75,0,0,1,113,332.5l1.32-124.14a24.13,24.13,0,0,1,21.19-23.69L248.64,170.8a24.13,24.13,0,0,1,26,16.86L310.22,303.4A25.77,25.77,0,0,1,289.38,336.45Z"/><path class="cls-1" d="M129.5,186.18c9.44-14.52,27.42-19.07,37-20.24l99.09-13.53a24.14,24.14,0,0,1,26,16.86L334.19,284c4.63,15.07-4.11,43-38.3,50.6"/><polygon points="317.12 237.13 314.07 228.91 309.09 223.93 298.46 234.55 309.09 245.17 317.12 237.13"/><polygon points="279.42 194.26 275.9 190.74 277.56 196.13 279.42 194.26"/><path d="M294.9,177.27l-3-8a24.07,24.07,0,0,0-2.78-6L285,167.4Z"/><polygon points="324.39 256.72 318.64 241.23 311.89 247.98 322.52 258.6 324.39 256.72"/><rect x="274.72" y="173.32" width="15.02" height="15.02" transform="translate(-45.2 252.53) rotate(-45)"/><polygon points="295.66 237.35 291.51 241.5 296.5 257.75 306.28 247.98 295.66 237.35"/><polygon points="295.66 204.88 302.58 197.96 298.21 186.19 295.66 183.64 285.03 194.26 295.66 204.88"/><polygon points="287.82 229.52 290.19 237.21 292.85 234.55 287.82 229.52"/><polygon points="306.28 221.12 295.66 210.5 285.19 220.96 285.33 221.42 295.66 231.74 306.28 221.12"/><polygon points="309.85 217.55 304.1 202.05 298.46 207.69 309.09 218.31 309.85 217.55"/><polygon points="278.88 200.42 283.87 216.67 292.85 207.69 282.23 197.07 278.88 200.42"/><path d="M334.07,302.63l-11.55-11.56L311.89,301.7l14.88,14.87A41.71,41.71,0,0,0,334.07,302.63Z"/><path d="M334.51,284l-1.33-3.56-7.86,7.87,9.81,9.8A31.09,31.09,0,0,0,334.51,284Z"/><path d="M311.32,306.73a25.61,25.61,0,0,1-3.5,17.75l4.27,4.27a48.14,48.14,0,0,0,12.08-9.17Z"/><polygon points="309.09 277.64 304.14 282.59 309.13 298.84 319.71 288.27 309.09 277.64"/><path d="M305.45,327.73a25.77,25.77,0,0,1-9.24,6.84,63.81,63.81,0,0,0,12.12-4Z"/><rect x="301.57" y="253.9" width="15.02" height="15.02" transform="translate(-94.31 295.12) rotate(-45)"/><polygon points="331.67 276.31 329.92 271.62 322.52 264.21 311.89 274.84 322.52 285.46 331.67 276.31"/><polygon points="299.75 268.3 302.82 278.3 306.28 274.84 299.75 268.3"/><polygon points="325.32 261.41 326.61 262.7 325.91 260.82 325.32 261.41"/><path d="M282.23,164.59l4.47-4.47a24.14,24.14,0,0,0-16.82-7.87Z"/><path d="M265.8,175a24.36,24.36,0,0,1,3.24,2.76l10.38-10.38-12.89-12.89L259,168.18Z"/><path class="cls-1" d="M152.06,182.63S143,114.55,181.26,111c47.34-4.11,52.56,61.66,52.56,61.66"/><path class="cls-1" d="M185.12,163.4s-1.59-61.52,30.44-64.78C252.41,95.5,260,153.17,260,153.17"/><polyline class="cls-2" points="149.92 182.63 151.42 322.36 128.35 356.36"/><line class="cls-1" x1="306.01" y1="301.16" x2="300.06" y2="301.97"/><line class="cls-3" x1="289.09" y1="303.48" x2="162.86" y2="320.79"/><line class="cls-1" x1="157.37" y1="321.54" x2="151.42" y2="322.36"/><path class="cls-1" d="M292.44,171.51s54.83-28.57,65.79-7.4-65,81.64-121,112.21-141.35,57.87-167,50.52-6.53-28.48,0-33.86c6.1-5,29.79-19.27,31.3,4.09s-26.84,56-55.94,55.64c0,0-29.86-2.61-16.63-35.7s61.74-62.2,84.8-67.1"/><rect class="cls-1" x="242.59" y="47.01" width="10.93" height="10.93" transform="translate(90.6 -146.25) rotate(39.66)"/><circle class="cls-1" cx="97.09" cy="140.62" r="6.52"/><circle class="cls-1" cx="443.03" cy="99.57" r="4.68"/><circle class="cls-1" cx="123.36" cy="401.69" r="5.1"/><line class="cls-4" x1="1" y1="271.36" x2="12.76" y2="266.69"/><line class="cls-4" x1="381.35" y1="240.56" x2="391.87" y2="247.6"/><path class="cls-5" d="M438.54,301a7.1,7.1,0,1,0-7.13-11.65,7.1,7.1,0,1,0-11.65,7.13,7.1,7.1,0,1,0,7.14,11.65A7.1,7.1,0,1,0,438.54,301Z"/><path class="cls-5" d="M119.23,37.78a8,8,0,0,1,8.83,1.76,8,8,0,0,1,13.66-5.84,8,8,0,0,1,13.67-5.84,8,8,0,0,1,14.36-5,27.86,27.86,0,0,0-1.21-3.46,30.28,30.28,0,1,0-54,27.07A8,8,0,0,1,119.23,37.78Z"/><path class="cls-5" d="M141.72,33.7l12,28s2.29,5.42,7.16,3.34c5.49-2.35,2.46-9.22,1.62-11.19"/><path class="cls-5" d="M332.07,53.74h26a0,0,0,0,1,0,0v47.52a2.81,2.81,0,0,1-2.81,2.81H334.89a2.81,2.81,0,0,1-2.81-2.81V53.74a0,0,0,0,1,0,0Z" transform="translate(156.87 -220.9) rotate(45)"/><path class="cls-5" d="M326.35,79.24l18.4,18.39c5.26,5.27,11.13,8.73,19.46.4s7.53-13.26.46-20.33L346.28,59.31"/><path class="cls-5" d="M366.78,34.85h5.91a2.3,2.3,0,0,1,2.3,2.3v7.5a0,0,0,0,1,0,0H362.72a.83.83,0,0,1-.83-.83V39.74A4.89,4.89,0,0,1,366.78,34.85Z" transform="translate(136.02 -248.88) rotate(45)"/><line class="cls-5" x1="359.61" y1="57.84" x2="370.34" y2="47.11"/><path class="cls-5" d="M375.47,54.55h10.86a0,0,0,0,1,0,0v6.61a2.2,2.2,0,0,1-2.2,2.2h-4.48a5,5,0,0,1-5-5v-3a.83.83,0,0,1,.83-.83Z" transform="translate(607.84 369.7) rotate(-135)"/><line class="cls-5" x1="366.47" y1="64.71" x2="373.24" y2="57.94"/><circle class="cls-5" cx="416.09" cy="183.32" r="23.75"/><path d="M417.16,200.44a2.6,2.6,0,1,1,2.59-2.59A2.6,2.6,0,0,1,417.16,200.44Zm0-2.64a0,0,0,0,0-.05,0Z"/><path d="M422.93,192.87a2.6,2.6,0,1,1,2.59-2.59A2.6,2.6,0,0,1,422.93,192.87Zm0-2.64.05.05A.05.05,0,0,0,422.93,190.23Z"/><path d="M429.27,185.27a2.6,2.6,0,1,1,2.6-2.6A2.6,2.6,0,0,1,429.27,185.27Zm0-2.65.05,0A.05.05,0,0,0,429.27,182.62Z"/><path d="M430.39,193.5a2.6,2.6,0,1,1,2.59-2.59A2.6,2.6,0,0,1,430.39,193.5Zm0-2.64a0,0,0,0,0-.05,0Z"/><path d="M424.66,200.42a2.59,2.59,0,1,1,2.59-2.59A2.59,2.59,0,0,1,424.66,200.42Zm0-2.64a0,0,0,0,0-.05.05Z"/><circle class="cls-6" cx="308.54" cy="311.66" r="49.61"/><path d="M324.3,309.83h0a4.1,4.1,0,0,0-4.55-3.61l-7.61.89-.88-7.61a4.11,4.11,0,0,0-8.17.95l.89,7.61-7.6.88a4.11,4.11,0,1,0,.95,8.17l7.6-.89.88,7.6a4.11,4.11,0,0,0,8.17-.95l-.89-7.6,7.61-.88A4.11,4.11,0,0,0,324.3,309.83Z"/><path class="cls-5" d="M26.06,180.55,37.61,169a16.93,16.93,0,0,1,2.75-2.24,11.1,11.1,0,0,1,6-1.59,2.68,2.68,0,0,0,2-.85c.75-.79,1.45-1.4,2.18-2.22.13-.15,1.1-1,1.21-1.23"/><path class="cls-5" d="M17.3,178.61,8,187.93a22.46,22.46,0,0,0-2,2.31,11.81,11.81,0,0,0-2.54,6.59c0,.72.29,1.08,1,1a15.39,15.39,0,0,0,2.53-.44,14.8,14.8,0,0,0,6.39-4.1l6.82-6.84"/><path class="cls-5" d="M40.48,149.59a8.07,8.07,0,0,0-1.33,1.12c-.73.77-1.49,1.52-2.25,2.26a2.83,2.83,0,0,0-.86,2,21.52,21.52,0,0,1-.33,2.88,11.5,11.5,0,0,1-3.51,5.91c-3,3-6,6-9,9"/><ellipse class="cls-5" cx="45.84" cy="155.49" rx="3.35" ry="8.01" transform="translate(-96.52 77.95) rotate(-45)"/><path class="cls-5" d="M48.42,164.23c-1.31,1.31-4.9-.17-8-3.29s-4.61-6.73-3.3-8"/><path class="cls-5" d="M5.93,159.44a8.63,8.63,0,0,0,.46,1.68c.39,1,.74,2,1.09,3a2.83,2.83,0,0,0,1.42,1.6,22.89,22.89,0,0,1,2.46,1.52,11.48,11.48,0,0,1,3.88,5.68q5.82,16.1,11.7,32.17a22.33,22.33,0,0,0,1.23,2.84,11.78,11.78,0,0,0,4.9,5.08c.64.34,1.1.2,1.33-.47a15.45,15.45,0,0,0,.68-2.48,14.71,14.71,0,0,0-1-7.53q-5.88-16.12-11.72-32.26a17.88,17.88,0,0,1-.87-3.44,11.11,11.11,0,0,1,1.09-6.1,2.7,2.7,0,0,0,.06-2.14c-.4-1-.65-1.91-1.09-2.91-.08-.19-.48-1.44-.6-1.62"/><ellipse class="cls-5" cx="13.54" cy="157.07" rx="8.01" ry="3.35" transform="translate(-52.87 14.09) rotate(-19.98)"/><path class="cls-5" d="M22.56,158.43c.63,1.74-2.22,4.37-6.38,5.89s-8,1.33-8.68-.41"/></g></g></svg>