<svg id="Layer_1" data-name="Layer 1" xmlns="http://www.w3.org/2000/svg" viewBox="0 0 737.73 95.91"><defs><style>.cls-1{fill:#fff;}.cls-2{fill:#77c157;}.cls-3{fill:#e75197;}</style></defs><path class="cls-1" d="M66.39,75.58q-2.53-9.73-4.58-22.74A270.55,270.55,0,0,1,59,24.35H74c.07,2.53.16,5.31.29,8.33s.3,6,.49,9.11.42,6,.68,8.91.55,5.5.88,7.83q2.15-2.91,4.82-7.2t5.21-9Q88.89,37.69,91,33a70.81,70.81,0,0,0,3.31-8.62h15.39a128.54,128.54,0,0,1-6.28,14.22q-3.77,7.31-8,14.12T86.69,65.45q-4.43,5.94-8.23,10.13Z" transform="translate(0)"/><path class="cls-1" d="M105.16,55.52a33.91,33.91,0,0,1,2.2-12.08,32.88,32.88,0,0,1,6.18-10.37,30.6,30.6,0,0,1,9.69-7.31A28.41,28.41,0,0,1,135.84,23a19.81,19.81,0,0,1,6.33,1,15.28,15.28,0,0,1,5.12,2.83,12.85,12.85,0,0,1,3.41,4.52,14.62,14.62,0,0,1,1.21,6.09,16.79,16.79,0,0,1-2.43,9.25,18.36,18.36,0,0,1-6.77,6.19,33.77,33.77,0,0,1-10.28,3.46,73.43,73.43,0,0,1-13,1.07c.45,2.73,1.45,4.66,3,5.79s4,1.71,7.26,1.71a38.2,38.2,0,0,0,6.33-.54,31.66,31.66,0,0,0,6-1.61l1.07,11.4a44.69,44.69,0,0,1-7,1.95,45.71,45.71,0,0,1-9.2.87,26.91,26.91,0,0,1-10.18-1.7,17.31,17.31,0,0,1-10.47-11.45A28.55,28.55,0,0,1,105.16,55.52Zm28.35-21A12.31,12.31,0,0,0,124.79,38a17.26,17.26,0,0,0-4.92,9.4,54.48,54.48,0,0,0,9.74-1,21.16,21.16,0,0,0,5.75-2,6.48,6.48,0,0,0,2.72-2.53,6,6,0,0,0,.69-2.72C138.77,36,137,34.48,133.51,34.48Z" transform="translate(0)"/><path class="cls-1" d="M161.09,26.69c1.1-.33,2.32-.7,3.65-1.12s2.82-.81,4.48-1.17a55,55,0,0,1,5.55-.88,62.92,62.92,0,0,1,7-.34q11.49,0,15.78,6.62T199,47.92l-6.62,27.66H177.84l6.43-27.08c.39-1.68.69-3.32.92-4.92a11.81,11.81,0,0,0-.05-4.18,4.94,4.94,0,0,0-1.8-2.92A6.9,6.9,0,0,0,179,35.36a29.21,29.21,0,0,0-5.75.58l-9.45,39.64H149.3Z" transform="translate(0)"/><path class="cls-1" d="M213.89,11.59,229,9.25l-3.7,15.1h16.17l-2.92,11.88H222.46l-4.29,17.92a24,24,0,0,0-.73,4.19,7,7,0,0,0,.49,3.36,4.48,4.48,0,0,0,2.19,2.19,9.73,9.73,0,0,0,4.29.78,22.6,22.6,0,0,0,4.53-.44A31.91,31.91,0,0,0,233.37,63l1.07,11.11A53.28,53.28,0,0,1,228.11,76a36.73,36.73,0,0,1-8.09.78q-6.72,0-10.42-2a11.54,11.54,0,0,1-5.26-5.45A17.26,17.26,0,0,1,203,61.36a50.89,50.89,0,0,1,1.36-9.45Z" transform="translate(0)"/><path class="cls-1" d="M252.93,53.47c-.33,1.46-.66,2.89-1,4.28a17.16,17.16,0,0,0-.49,4,8.14,8.14,0,0,0,1.64,5.37q1.63,2,6.11,2.48l-2.09,7.56a19.7,19.7,0,0,1-6.91-1.25,12.43,12.43,0,0,1-4.57-3,11.42,11.42,0,0,1-2.53-4.47,19.18,19.18,0,0,1-.8-5.67,30.67,30.67,0,0,1,.4-4.76c.26-1.66.63-3.39,1.09-5.17l12-51.19L265.4,0Z" transform="translate(0)"/><polygon class="cls-1" points="272.75 77.13 263.51 77.13 275.93 25.45 285.17 25.45 272.75 77.13"/><path class="cls-1" d="M283.48,16.1a5.46,5.46,0,0,1-3.82-1.39,5,5,0,0,1-1.54-3.88A6.53,6.53,0,0,1,284.58,4a5.56,5.56,0,0,1,3.87,1.44,5.15,5.15,0,0,1,1.59,4A6.1,6.1,0,0,1,288,14.26,6.68,6.68,0,0,1,283.48,16.1Z" transform="translate(0)"/><path class="cls-1" d="M352.34,25.45c-.47,2-1.23,4.62-2.29,7.89s-2.37,6.88-3.92,10.79-3.37,8-5.42,12.28a121,121,0,0,1-6.86,12.37q-1.39-5.27-2.43-11t-1.79-11.48q-.75-5.72-1.14-11c-.27-3.54-.44-6.81-.5-9.78H303.18l1.1-4.48a37.44,37.44,0,0,1,1.64-5.36,12.47,12.47,0,0,1,2.53-4.08,10.93,10.93,0,0,1,3.88-2.63,14.55,14.55,0,0,1,5.56-1,20.61,20.61,0,0,1,5.72.6,19.77,19.77,0,0,1,2.73,1L330,2.19A21.46,21.46,0,0,0,325.3.7a30,30,0,0,0-6.61-.7,27.42,27.42,0,0,0-9.25,1.39,19.2,19.2,0,0,0-6.7,4,21.06,21.06,0,0,0-4.68,6.51,45.94,45.94,0,0,0-3,8.84L284,66.89c-.93,3.84-1.67,7-2.24,9.39a42,42,0,0,1-2,6.41,36.06,36.06,0,0,1-2.84,5.47c-1.12,1.79-2.68,4-4.67,6.56l8.15,1.19a39.69,39.69,0,0,0,5.52-6.71,33.86,33.86,0,0,0,3.28-6.71A62.28,62.28,0,0,0,291.35,75c.6-2.65,1.3-5.66,2.09-9.05l7.95-32.79H319q.74,9.73,2.4,19.28a212.06,212.06,0,0,0,6,25.34,35.21,35.21,0,0,1-7.6,7.36A16.83,16.83,0,0,1,310,88a12.41,12.41,0,0,1-3.78-.55,8.37,8.37,0,0,1-2.68-1.34l-3.18,7.56a12.21,12.21,0,0,0,3.48,1.49,18.52,18.52,0,0,0,5.17.69,26.37,26.37,0,0,0,9.83-1.74,29.31,29.31,0,0,0,8-4.77,45.25,45.25,0,0,0,6.8-7.16Q336.83,78,340,73.35a137.49,137.49,0,0,0,7.7-13.07q3.52-6.81,6.36-13.32t4.82-12.12q2-5.63,3.08-9.39Z" transform="translate(0)"/><path class="cls-1" d="M376.15,17.62a8.35,8.35,0,1,1,8.35-8.35A8.35,8.35,0,0,1,376.15,17.62Zm0-15.15a6.69,6.69,0,0,0-6.69,6.8,6.68,6.68,0,1,0,13.35,0A6.67,6.67,0,0,0,376.15,2.47Zm1.75,11.3-1.84-3.57H374.9v3.57h-1.66v-9h3.39a2.8,2.8,0,0,1,2.91,2.77A2.51,2.51,0,0,1,377.76,10l2,3.81Zm-1.48-7.61H374.9V8.88h1.52a1.36,1.36,0,1,0,0-2.72Z" transform="translate(0)"/><path class="cls-2" d="M22,56.9h0q.87,0,1.68,0a72.13,72.13,0,0,0,11.23-1,33.24,33.24,0,0,0,10.24-3.45,18.31,18.31,0,0,0,6.75-6.16A16.75,16.75,0,0,0,54.36,37a14.48,14.48,0,0,0-1.22-6.06,12.7,12.7,0,0,0-3.4-4.52,15.27,15.27,0,0,0-5.09-2.81,19.78,19.78,0,0,0-6.31-1A28.34,28.34,0,0,0,25.77,25.4a30.42,30.42,0,0,0-9.66,7.29A32.85,32.85,0,0,0,9.94,43c-.32.86-.59,1.73-.84,2.59A34.67,34.67,0,0,1,0,42.12S4,56.9,22,56.9Zm5.29-19.27A12.25,12.25,0,0,1,36,34.09q5.24,0,5.24,4.66a6,6,0,0,1-.68,2.72A6.41,6.41,0,0,1,37.85,44a20.69,20.69,0,0,1-5.73,2,54.08,54.08,0,0,1-9.7,1A17.22,17.22,0,0,1,27.32,37.63Z" transform="translate(0)"/><path class="cls-2" d="M31.83,65.51a10.65,10.65,0,0,1-8.94-6h0c-6.61.77-11.51-.72-15.08-2.91a28.53,28.53,0,0,0,1.11,6.69,17.87,17.87,0,0,0,3.74,6.8,17.7,17.7,0,0,0,6.7,4.6,26.55,26.55,0,0,0,10.15,1.71c4.71,0,22.59-3.12,25.87-23.07C48.76,64,39.52,66.33,31.83,65.51Z" transform="translate(0)"/><path class="cls-3" d="M558.55,77.63c-4.9,0-10.74-2.43-10.74-14V31.39h-7.22V28.48h7.22V16.81h2.9V28.48H568v2.91H550.71V63.64c0,5.06,1.36,11.09,7.84,11.09h.19a13.91,13.91,0,0,0,8.25-3l.4-.32,1.74,2.33-.39.3a17.13,17.13,0,0,1-10,3.62Zm162.16,0a25.36,25.36,0,0,1-17.92-7l-.33-.33,1.89-2.18.38.37a22.28,22.28,0,0,0,16,6.22c6.63,0,13.83-2.6,14.12-9.87.27-7-6.55-9.13-13.76-11.37-7.75-2.4-15.77-4.89-15.77-13.68,0-7.57,6.16-12.27,16.07-12.27a26,26,0,0,1,13.36,3.58l.43.25-1.47,2.5-.43-.28a21.92,21.92,0,0,0-11.79-3.16c-8.31,0-13.27,3.44-13.27,9.19,0,6.71,6.6,8.69,13.58,10.78,7.84,2.34,16,4.77,16,14C737.73,74.16,728.56,77.63,720.71,77.63Zm-28.69,0V47.41c0-10.79-6.15-17-16.87-17-11.9.28-19.27,7.59-20.2,20V77.63h-2.9V27.54H655V39.43c3.64-7.52,10.72-11.72,20.19-11.89,12.39,0,19.79,7.43,19.79,19.87V77.63Zm-75.71,0c-14.1,0-24.33-10.56-24.33-25.1s10.23-25,24.33-25,24.33,10.51,24.33,25S630.41,77.63,616.31,77.63Zm0-47.2c-12.62,0-21.44,9.09-21.44,22.1s8.82,22.2,21.44,22.2,21.43-9.13,21.43-22.2S628.93,30.43,616.31,30.43Zm-38.63,47.2V27.54h2.9V77.63Zm-62.49,0c-14.1,0-24.33-10.56-24.33-25.1s10.23-25,24.33-25a24.48,24.48,0,0,1,17.06,6.69l.36.34-1.91,2-.37-.33a22.18,22.18,0,0,0-15.14-5.86c-12.47,0-21.53,9.3-21.53,22.1,0,13.07,8.86,22.2,21.53,22.2a21,21,0,0,0,16.15-7l.36-.42,1.93,2.07-.3.34A23.76,23.76,0,0,1,515.19,77.63Zm-38.64,0V65.42c-3.54,7.72-10.52,12-19.91,12.21-12.21,0-19.5-7.43-19.5-19.87V27.54H440V57.76c0,10.78,6,17,16.59,17,12.47-.27,19.92-8.75,19.92-22.67V27.54h2.9V77.63Zm-55.9,0-.09-9.87c-4.31,6.46-11.23,9.87-20.11,9.87-9.69,0-16.45-6-16.45-14.65,0-8.22,7-13.13,18.73-13.13h17.73V44.37c-.1-9.12-5.32-13.94-15.07-13.94-5.76,0-11,2.08-16.88,6.73l-.4.32-1.75-2.32.38-.3c6.31-5,12.23-7.32,18.65-7.32,11.15,0,17.86,6.29,18,16.82l.2,33.27ZM402.73,52.75c-10.07,0-15.84,3.73-15.84,10.23,0,7,5.48,11.75,13.65,11.75,9.89,0,16.44-4.28,20-13.08l-.09-8.9Zm176.4-35.89a3,3,0,1,1,3-3A3,3,0,0,1,579.13,16.86Z" transform="translate(0)"/></svg>